# xmcd
#
# Track frame offsets: 
#        150
#        4896
#        18310
#        39771
#        47987
#        65512
#        84724
#        110930
#        130801
#        146121
#        166086
#        183219
#        194327
#        206770
#        237928
#        256621
#        311325
#
# Disc length: 4164 seconds
#
# Revision: 1
# Processed by: cddbd v1.5PL3 Copyright (c) Steve Scherf et al.
# Submitted via: ExactAudioCopy v0.95a3
#
DISCID=e7104211
DTITLE=Figurine - Reconfigurine
DYEAR=1999
DGENRE=Electronic
TTITLE0=F>I>G>U>R>I>N>E> (Reconfigurine Theme) (Figurine remix)
TTITLE1=I Wait for You (By the Telephone) (Pacifica remix)
TTITLE2=Eurodiscoteque (Technicolor remix)
TTITLE3=My First UFO (ckid remix)
TTITLE4=You (David Figurine remix)
TTITLE5=Tired Eyes (Dj Blank remix)
TTITLE6=International Space Station (David Figurine remix)
TTITLE7=City 2 City
TTITLE8=S.O.S. (Double Agent remix)
TTITLE9=Batteries (Can't Help Me Now) (Mall remix)
TTITLE10=The European Beauty (Phasmid remix)
TTITLE11=ROBOTS 2002 (Figurine remix)
TTITLE12=New Mate (Steward remix)
TTITLE13=New Millenium Song (Flowchart remix)
TTITLE14=An Electronic Address (Printed Circuit remix)
TTITLE15=Digits (Accelera Deck remix)
TTITLE16=Untitled Bonus Track
EXTD=
EXTT0=
EXTT1=
EXTT2=
EXTT3=
EXTT4=
EXTT5=
EXTT6=
EXTT7=
EXTT8=
EXTT9=
EXTT10=
EXTT11=
EXTT12=
EXTT13=
EXTT14=
EXTT15=
EXTT16=
PLAYORDER=
